<?xml version="1.0"?>
<svg version="1.1" xmlns="http://www.w3.org/2000/svg" xmlns:xlink="http://www.w3.org/1999/xlink" width="512" height="177">
    <desc iVinci="yes" version="4.5" gridStep="20" showGrid="no" snapToGrid="no" codePlatform="0"/>
    <g id="Layer1" opacity="1">
        <g id="Shape1">
            <desc shapeID="1" type="2" basicInfo-basicType="0" basicInfo-roundedRectRadius="12" basicInfo-polygonSides="6" basicInfo-starPoints="5" bounding="rect(-217.757,-55,435.515,110)" text="ScalaChina" font-familyName="Poplar Std" font-pixelSize="110" font-bold="0" font-underline="0" font-alignment="1" strokeStyle="0" markerStart="0" markerEnd="0" shadowEnabled="0" shadowOffsetX="0" shadowOffsetY="2" shadowBlur="4" shadowOpacity="160" blurEnabled="0" blurRadius="4" transform="matrix(1,0,0,1,312.68,83.2148)" pers-center="0,0" pers-size="0,0" pers-start="0,0" pers-end="0,0" locked="0" mesh="" flag=""/>
            <path id="shapePath1" d="M160.765,55.7054 C161.645,55.7054 162.085,55.0454 162.085,54.2754 C162.085,41.1854 152.955,29.6354 138.215,29.6354 C123.475,29.6354 115.115,41.8454 115.115,53.0654 C115.115,60.5454 118.745,68.7954 126.115,74.7354 C133.485,80.6754 139.645,85.5154 139.645,88.1554 C139.645,90.6854 138.655,91.6754 137.115,91.6754 C134.475,91.6754 132.605,86.9454 132.165,82.5454 C132.055,81.5554 131.615,81.1154 130.845,81.1154 L115.665,81.8854 C114.785,81.8854 114.345,82.4354 114.345,82.9854 C114.345,100.585 122.045,112.685 138.765,112.685 C153.175,112.685 161.975,100.915 161.975,86.1754 C161.975,78.0354 156.585,70.1154 149.435,65.2754 C142.835,60.7654 137.665,56.8054 137.665,53.2854 C137.665,52.1854 138.215,51.3054 139.315,51.3054 C140.855,51.3054 141.955,52.6254 142.615,55.2654 C142.835,56.1454 143.275,56.4754 143.935,56.4754 L160.765,55.7054 M165.157,91.3454 C165.157,104.105 172.417,112.355 182.977,112.355 C202.227,112.355 202.227,94.5354 202.227,87.0554 C202.227,86.3954 201.787,85.8454 201.017,85.7354 L186.387,84.9654 C185.617,84.9654 185.177,85.4054 185.177,86.0654 L185.177,93.1054 C185.177,94.4254 184.297,95.3054 183.527,95.3054 C182.647,95.3054 181.657,94.4254 181.657,93.1054 L181.657,63.8454 C181.657,62.5254 182.647,61.6454 183.417,61.6454 C184.297,61.6454 185.177,62.5254 185.177,63.8454 L185.177,71.9854 C185.177,72.6454 185.727,73.4154 186.497,73.3054 L200.908,72.5354 C202.227,72.4254 202.227,71.7654 202.227,66.4854 C202.227,56.4754 195.077,46.3554 183.417,46.3554 C171.757,46.3554 165.157,55.7054 165.157,65.3854 L165.157,91.3454 M221.248,69.3454 C221.798,69.3454 222.238,69.0154 222.238,68.4654 C222.238,63.4054 222.238,62.7454 223.998,62.7454 C224.988,62.7454 225.648,63.5154 225.648,65.0554 C225.648,68.9054 225.208,70.1154 217.178,73.5254 C211.128,76.0554 205.298,80.6754 205.298,89.3654 L205.298,97.5054 C205.298,108.505 212.118,112.355 216.738,112.355 C220.588,112.355 223.228,110.265 224.438,108.615 C225.098,107.735 225.538,107.515 225.648,107.515 C225.868,107.515 226.198,107.735 226.748,108.505 C228.398,111.035 230.378,112.685 235.438,112.685 C241.598,112.685 246.328,106.305 246.328,100.915 L246.328,94.0954 C246.328,93.6554 245.998,93.2154 245.558,93.2154 C243.138,93.2154 242.808,93.2154 242.808,92.3354 L242.808,62.5254 C242.808,53.9454 236.098,46.3554 223.998,46.3554 C212.558,46.3554 205.848,54.1654 205.848,62.8554 C205.848,68.0254 205.848,68.5754 206.618,68.5754 L221.248,69.3454 M225.648,94.7554 C225.648,96.0754 224.768,96.6254 223.888,96.6254 C223.008,96.6254 222.128,96.0754 222.128,94.7554 L222.128,86.6154 C222.128,84.1954 224.328,83.2054 224.988,83.2054 C225.428,83.3154 225.648,83.6454 225.648,84.0854 L225.648,94.7554 M266.008,112.355 C266.448,112.355 266.887,111.915 266.887,111.475 L266.887,29.1954 C266.887,28.5354 266.557,28.2054 265.787,28.2054 L250.277,28.2054 C249.507,28.2054 249.067,28.5354 249.067,29.5254 L249.067,111.365 C249.067,111.805 249.507,112.355 249.947,112.355 L266.008,112.355 M286.576,69.3454 C287.126,69.3454 287.566,69.0154 287.566,68.4654 C287.566,63.4054 287.566,62.7454 289.326,62.7454 C290.316,62.7454 290.976,63.5154 290.976,65.0554 C290.976,68.9054 290.536,70.1154 282.506,73.5254 C276.456,76.0554 270.626,80.6754 270.626,89.3654 L270.626,97.5054 C270.626,108.505 277.446,112.355 282.066,112.355 C285.916,112.355 288.556,110.265 289.766,108.615 C290.426,107.735 290.866,107.515 290.976,107.515 C291.196,107.515 291.526,107.735 292.076,108.505 C293.726,111.035 295.706,112.685 300.766,112.685 C306.926,112.685 311.656,106.305 311.656,100.915 L311.656,94.0954 C311.656,93.6554 311.326,93.2154 310.886,93.2154 C308.466,93.2154 308.136,93.2154 308.136,92.3354 L308.136,62.5254 C308.136,53.9454 301.426,46.3554 289.326,46.3554 C277.886,46.3554 271.176,54.1654 271.176,62.8554 C271.176,68.0254 271.176,68.5754 271.946,68.5754 L286.576,69.3454 M290.976,94.7554 C290.976,96.0754 290.096,96.6254 289.216,96.6254 C288.336,96.6254 287.456,96.0754 287.456,94.7554 L287.456,86.6154 C287.456,84.1954 289.656,83.2054 290.316,83.2054 C290.756,83.3154 290.976,83.6454 290.976,84.0854 L290.976,94.7554 M313.736,83.2054 C313.736,98.9354 322.316,112.685 337.606,112.685 C351.466,112.685 362.356,103.555 362.356,77.0454 C362.356,76.6054 362.026,76.1654 361.476,76.1654 L340.686,75.3954 C339.806,75.2854 339.366,76.2754 339.366,76.9354 L339.366,88.0454 C339.366,89.1454 338.706,90.0254 337.606,90.0254 C336.616,90.0254 335.846,89.2554 335.846,88.1554 L335.846,53.9454 C335.846,52.7354 336.726,51.9654 337.606,51.9654 C338.486,51.9654 339.366,52.5154 339.366,54.0554 L339.366,60.9854 C339.366,62.3054 340.356,63.1854 341.346,63.1854 L361.696,62.4154 C362.686,62.4154 362.686,62.0854 362.686,59.1154 C362.686,43.2754 354.216,29.6354 338.156,29.6354 C323.086,29.6354 313.736,41.2954 313.736,61.3154 L313.736,83.2054 M366.411,111.365 C366.411,111.805 366.851,112.355 367.291,112.355 L383.021,112.355 C383.461,112.355 383.791,111.915 383.791,111.475 L383.791,66.0454 C383.791,64.3954 384.671,63.8454 385.551,63.8454 C386.431,63.8454 387.311,64.3954 387.311,66.0454 L387.311,111.585 C387.311,112.025 387.641,112.355 388.081,112.355 L403.261,112.355 C403.591,112.355 403.921,112.025 403.921,111.695 L403.921,57.6854 C403.921,49.1054 397.981,46.3554 393.361,46.3554 C390.171,46.3554 387.531,47.7854 385.661,49.5454 C385.111,49.9854 384.671,50.2054 384.561,50.2054 C384.451,50.2054 384.231,49.9854 384.231,49.2154 L384.231,29.1954 C384.231,28.5354 383.901,28.2054 383.131,28.2054 L367.621,28.2054 C366.851,28.2054 366.411,28.5354 366.411,29.5254 L366.411,111.365 M426.137,47.4554 C426.137,46.9054 425.698,46.3554 425.037,46.3554 L409.417,46.3554 C408.758,46.3554 408.318,46.9054 408.318,47.6754 L408.318,111.365 C408.318,111.805 408.758,112.355 409.198,112.355 L425.367,112.355 C425.807,112.355 426.137,111.915 426.137,111.475 L426.137,47.4554 M425.037,27.6554 C425.037,27.1054 424.487,26.7754 424.047,26.7754 L410.517,26.7754 C409.967,26.7754 409.417,27.4354 409.417,27.9854 L409.417,41.6254 C409.417,42.2854 409.967,42.9454 410.517,42.9454 L423.938,42.9454 C424.598,42.9454 425.037,42.3954 425.037,41.7354 L425.037,27.6554 M446.486,112.355 C447.036,112.355 447.256,112.135 447.256,111.695 L447.256,66.5954 C447.256,64.9454 448.136,64.3954 449.016,64.3954 C449.896,64.3954 450.776,64.9454 450.776,66.5954 L450.776,111.585 C450.776,112.025 451.106,112.355 451.546,112.355 L466.726,112.355 C467.056,112.355 467.276,112.135 467.276,111.805 L467.276,58.0154 C467.276,50.5354 461.886,46.3554 456.496,46.3554 C451.876,46.3554 449.896,47.7854 447.916,50.3154 C447.476,50.8654 447.256,50.9754 447.146,50.9754 C446.706,50.9754 445.826,46.3554 445.056,46.3554 L431.306,46.3554 C430.866,46.3554 430.536,46.6854 430.536,47.1254 L430.536,111.255 C430.536,111.915 430.976,112.355 431.416,112.355 L446.486,112.355 M486.951,69.3454 C487.501,69.3454 487.941,69.0154 487.941,68.4654 C487.941,63.4054 487.941,62.7454 489.701,62.7454 C490.691,62.7454 491.351,63.5154 491.351,65.0554 C491.351,68.9054 490.911,70.1154 482.881,73.5254 C476.831,76.0554 471.001,80.6754 471.001,89.3654 L471.001,97.5054 C471.001,108.505 477.821,112.355 482.441,112.355 C486.291,112.355 488.931,110.265 490.141,108.615 C490.801,107.735 491.241,107.515 491.351,107.515 C491.571,107.515 491.901,107.735 492.451,108.505 C494.101,111.035 496.081,112.685 501.141,112.685 C507.301,112.685 512.031,106.305 512.031,100.915 L512.031,94.0954 C512.031,93.6554 511.701,93.2154 511.261,93.2154 C508.841,93.2154 508.511,93.2154 508.511,92.3354 L508.511,62.5254 C508.511,53.9454 501.801,46.3554 489.701,46.3554 C478.261,46.3554 471.551,54.1654 471.551,62.8554 C471.551,68.0254 471.551,68.5754 472.321,68.5754 L486.951,69.3454 M491.351,94.7554 C491.351,96.0754 490.471,96.6254 489.591,96.6254 C488.711,96.6254 487.831,96.0754 487.831,94.7554 L487.831,86.6154 C487.831,84.1954 490.031,83.2054 490.691,83.2054 C491.131,83.3154 491.351,83.6454 491.351,84.0854 L491.351,94.7554 Z" style="stroke:none;fill-rule:nonzero;fill:#ffffff;fill-opacity:1;"/>
        </g>
        <g id="Shape2">
            <desc shapeID="2" type="0" basicInfo-basicType="0" basicInfo-roundedRectRadius="12" basicInfo-polygonSides="6" basicInfo-starPoints="5" bounding="rect(-31.45,-21,62.9,42.0001)" text="" font-familyName="" font-pixelSize="20" font-bold="0" font-underline="0" font-alignment="1" strokeStyle="0" markerStart="0" markerEnd="0" shadowEnabled="0" shadowOffsetX="0" shadowOffsetY="2" shadowBlur="4" shadowOpacity="160" blurEnabled="0" blurRadius="4" transform="matrix(1.4747,0,0,1.4747,48.6592,52.8411)" pers-center="0,0" pers-size="0,0" pers-start="0,0" pers-end="0,0" locked="0" mesh="" flag=""/>
            <path id="shapePath2" d="M2.2799,59.0348 C2.2799,59.0348 95.0385,68.3254 95.0385,83.8099 L95.0385,46.6474 C95.0385,46.6474 95.0385,31.163 2.2799,21.8724 L2.2799,36.3245 L2.2799,59.0348 Z" style="stroke:none;fill-rule:evenodd;fill:#ffffff;fill-opacity:0.6;"/>
        </g>
        <g id="Shape3">
            <desc shapeID="3" type="0" basicInfo-basicType="0" basicInfo-roundedRectRadius="12" basicInfo-polygonSides="6" basicInfo-starPoints="5" bounding="rect(-31.45,-21.0001,62.9,42.0002)" text="" font-familyName="" font-pixelSize="20" font-bold="0" font-underline="0" font-alignment="1" strokeStyle="0" markerStart="0" markerEnd="0" shadowEnabled="0" shadowOffsetX="0" shadowOffsetY="2" shadowBlur="4" shadowOpacity="160" blurEnabled="0" blurRadius="4" transform="matrix(1.4747,0,0,1.4747,48.6592,102.391)" pers-center="0,0" pers-size="0,0" pers-start="0,0" pers-end="0,0" locked="0" mesh="" flag=""/>
            <path id="shapePath3" d="M2.2799,108.585 C2.2799,108.585 95.0385,117.876 95.0385,133.36 L95.0385,96.1974 C95.0385,96.1974 95.0385,80.7131 2.2799,71.4223 L2.2799,108.585 Z" style="stroke:none;fill-rule:evenodd;fill:#ffffff;fill-opacity:0.6;"/>
        </g>
        <g id="Shape4">
            <desc shapeID="4" type="0" basicInfo-basicType="0" basicInfo-roundedRectRadius="12" basicInfo-polygonSides="6" basicInfo-starPoints="5" bounding="rect(-31.4501,-21,62.9001,42)" text="" font-familyName="" font-pixelSize="20" font-bold="0" font-underline="0" font-alignment="1" strokeStyle="0" markerStart="0" markerEnd="0" shadowEnabled="0" shadowOffsetX="0" shadowOffsetY="2" shadowBlur="4" shadowOpacity="160" blurEnabled="0" blurRadius="4" transform="matrix(1.4747,0,0,1.4747,48.8067,28.2136)" pers-center="0,0" pers-size="0,0" pers-start="0,0" pers-end="0,0" locked="0" mesh="" flag=""/>
            <path id="shapePath4" d="M95.186,-2.7551 L95.186,34.4073 C95.186,34.4073 95.186,49.8917 2.42737,59.1823 L2.42737,21.8724 C2.2799,21.8724 95.186,12.7293 95.186,-2.7551 Z" style="stroke:none;fill-rule:evenodd;fill:#ffffff;fill-opacity:1;"/>
        </g>
        <g id="Shape5">
            <desc shapeID="5" type="0" basicInfo-basicType="0" basicInfo-roundedRectRadius="12" basicInfo-polygonSides="6" basicInfo-starPoints="5" bounding="rect(-31.45,-21,62.9,42.0001)" text="" font-familyName="" font-pixelSize="20" font-bold="0" font-underline="0" font-alignment="1" strokeStyle="0" markerStart="0" markerEnd="0" shadowEnabled="0" shadowOffsetX="0" shadowOffsetY="2" shadowBlur="4" shadowOpacity="160" blurEnabled="0" blurRadius="4" transform="matrix(1.4747,0,0,1.4747,48.6592,77.6161)" pers-center="0,0" pers-size="0,0" pers-start="0,0" pers-end="0,0" locked="0" mesh="" flag=""/>
            <path id="shapePath5" d="M2.2799,71.4223 C2.2799,71.4223 95.0385,62.1317 95.0385,46.6474 L95.0385,83.8099 C95.0385,83.8099 95.0385,99.2943 2.2799,108.585 L2.2799,71.4223 Z" style="stroke:none;fill-rule:evenodd;fill:#ffffff;fill-opacity:1;"/>
        </g>
        <g id="Shape6">
            <desc shapeID="6" type="0" basicInfo-basicType="0" basicInfo-roundedRectRadius="12" basicInfo-polygonSides="6" basicInfo-starPoints="5" bounding="rect(-31.4538,-20.9999,62.9075,41.9998)" text="" font-familyName="" font-pixelSize="20" font-bold="0" font-underline="0" font-alignment="1" strokeStyle="0" markerStart="0" markerEnd="0" shadowEnabled="0" shadowOffsetX="0" shadowOffsetY="2" shadowBlur="4" shadowOpacity="160" blurEnabled="0" blurRadius="4" transform="matrix(1.4747,0,0,1.4747,48.6648,127.018)" pers-center="0,0" pers-size="0,0" pers-start="0,0" pers-end="0,0" locked="0" mesh="" flag=""/>
            <path id="shapePath6" d="M2.2799,157.987 L2.2799,120.825 C2.2799,120.825 95.0385,111.534 95.0385,96.0499 L95.0385,133.212 C95.186,133.36 95.186,148.697 2.2799,157.987 Z" style="stroke:none;fill-rule:evenodd;fill:#ffffff;fill-opacity:1;"/>
        </g>
    </g>
</svg>
